<?xml version="1.0" encoding="UTF-8"?>
<svg width="14px" height="14px" viewBox="0 0 14 14" version="1.1" xmlns="http://www.w3.org/2000/svg" xmlns:xlink="http://www.w3.org/1999/xlink">
    <!-- Generator: Sketch 63.1 (92452) - https://sketch.com -->
    <title>Grids black</title>
    <desc>Created with Sketch.</desc>
    <g id="Page-1" stroke="none" stroke-width="1" fill="none" fill-rule="evenodd">
        <g id="001-copy" transform="translate(-73.000000, -70.000000)" fill="#5554D3" fill-rule="nonzero">
            <g id="Grids-black" transform="translate(73.000000, 70.000000)">
                <path d="M5.15340173,0 L0.974940319,0 C0.437330672,0 0,0.437330672 0,0.974940319 L0,3.48201717 C0,4.01972885 0.437330672,4.45705952 0.974940319,4.45705952 L5.15340173,4.45705952 C5.69111341,4.45705952 6.12844408,4.01972885 6.12844408,3.48201717 L6.12844408,0.974940319 C6.12844408,0.437330672 5.69111341,0 5.15340173,0 Z" id="Path"></path>
                <path d="M5.15340173,5.57124787 L0.974940319,5.57124787 C0.437330672,5.57124787 0,6.00857855 0,6.54629022 L0,12.3961362 C0,12.9337458 0.437330672,13.3710765 0.974940319,13.3710765 L5.15340173,13.3710765 C5.69111341,13.3710765 6.12844408,12.9337458 6.12844408,12.3961362 L6.12844408,6.54629022 C6.12844408,6.00857855 5.69111341,5.57124787 5.15340173,5.57124787 Z" id="Path"></path>
                <path d="M12.3961362,8.914017 L8.21767479,8.914017 C7.67996311,8.914017 7.24263244,9.35134768 7.24263244,9.88905935 L7.24263244,12.3961362 C7.24263244,12.9337458 7.67996311,13.3710765 8.21767479,13.3710765 L12.3961362,13.3710765 C12.9337458,13.3710765 13.3710765,12.9337458 13.3710765,12.3961362 L13.3710765,9.88905935 C13.3710765,9.35134768 12.9337458,8.914017 12.3961362,8.914017 L12.3961362,8.914017 Z" id="Path"></path>
                <path d="M12.3961362,0 L8.21767479,0 C7.67996311,0 7.24263244,0.437330672 7.24263244,0.974940319 L7.24263244,6.8247863 C7.24263244,7.36249798 7.67996311,7.79982865 8.21767479,7.79982865 L12.3961362,7.79982865 C12.9337458,7.79982865 13.3710765,7.36249798 13.3710765,6.8247863 L13.3710765,0.974940319 C13.3710765,0.437330672 12.9337458,0 12.3961362,0 L12.3961362,0 Z" id="Path"></path>
            </g>
        </g>
    </g>
</svg>