<?xml version="1.0" encoding="UTF-8"?>
<svg width="15px" height="15px" viewBox="0 0 15 15" version="1.1" xmlns="http://www.w3.org/2000/svg" xmlns:xlink="http://www.w3.org/1999/xlink">
    <!-- Generator: Sketch 63.1 (92452) - https://sketch.com -->
    <title>Logout</title>
    <desc>Created with Sketch.</desc>
    <g id="Page-1" stroke="none" stroke-width="1" fill="none" fill-rule="evenodd">
        <g id="001-copy" transform="translate(-207.000000, -128.000000)" fill="#000000" fill-rule="nonzero">
            <g id="Logout" transform="translate(207.000000, 128.000000)">
                <g id="logout" transform="translate(0.208333, 0.208333)">
                    <path d="M9.07407411,7.86427142 C8.73955624,7.86427142 8.46917277,8.13531949 8.46917277,8.46917277 L8.46917277,10.8889997 C8.46917277,11.2222991 8.19812467,11.4939011 7.86416063,11.4939011 L6.04934581,11.4939011 L6.04934581,2.41982696 C6.04934581,1.90320731 5.72025554,1.4416391 5.22545711,1.26983869 L5.04634606,1.20991348 L7.86416063,1.20991348 C8.19812467,1.20991348 8.46917277,1.4815154 8.46917277,1.81492558 L8.46917277,3.62974041 C8.46917277,3.96359368 8.73955624,4.23464178 9.07407411,4.23464178 C9.40859198,4.23464178 9.67897546,3.96359368 9.67897546,3.62974041 L9.67897546,1.81492558 C9.67897546,0.814362706 8.86472354,0.000110767506 7.86416063,0.000110767506 L1.36111112,0.000110767506 C1.33807148,0.000110767506 1.31879792,0.0104121598 1.29642289,0.0134028612 C1.26729103,0.0109659902 1.23948841,0.000110767506 1.20991348,0.000110767506 C0.54265002,0.000110767506 8.05939681e-16,0.54265002 8.05939681e-16,1.20991348 L8.05939681e-16,12.0988024 C8.05939681e-16,12.6154221 0.329090268,13.0769902 0.823888726,13.2487906 L4.46448433,14.4623594 C4.58787935,14.5004635 4.71060975,14.5186293 4.83954312,14.5186293 C5.50680658,14.5186293 6.04934581,13.9759793 6.04934581,13.3087159 L6.04934581,12.7038145 L7.86416063,12.7038145 C8.86472354,12.7038145 9.67897546,11.8895626 9.67897546,10.8889997 L9.67897546,8.46917277 C9.67897546,8.13531949 9.40859198,7.86427142 9.07407411,7.86427142 Z" id="Path"></path>
                    <path d="M14.3412906,5.62178324 L11.9214636,3.20206707 C11.7485555,3.02904821 11.4883627,2.9769875 11.2621754,3.07069679 C11.036542,3.16451688 10.8888889,3.38527651 10.8888889,3.62974041 L10.8888889,5.44455523 L8.46917277,5.44455523 C8.13520873,5.44455523 7.86416063,5.71549256 7.86416063,6.0494566 C7.86416063,6.38342061 8.13520873,6.65435795 8.46917277,6.65435795 L10.8888889,6.65435795 L10.8888889,8.46917277 C10.8888889,8.71363663 11.036542,8.93439629 11.2621754,9.02821635 C11.4883627,9.12192568 11.7485555,9.06986493 11.9214636,8.89695686 L14.3412906,6.47712994 C14.5777792,6.2406413 14.5777792,5.85827187 14.3412906,5.62178324 Z" id="Path"></path>
                </g>
            </g>
        </g>
    </g>
</svg>