<svg id="member" xmlns="http://www.w3.org/2000/svg" width="28" height="28" viewBox="0 0 28 28">
  <rect id="Rectangle" width="28" height="28" fill="none"/>
  <path id="Shape" d="M22.75,14V12.121a5.253,5.253,0,0,0-.735-2.671,7.935,7.935,0,0,1,4.561.56A2.348,2.348,0,0,1,28,12.168V14ZM7,14V12.121A3.456,3.456,0,0,1,9.053,8.937,12.176,12.176,0,0,1,14,7.875a12.373,12.373,0,0,1,4.947,1.05A3.481,3.481,0,0,1,21,12.11V14ZM0,14V12.168A2.346,2.346,0,0,1,1.424,10.01a8.1,8.1,0,0,1,3.242-.676,8.1,8.1,0,0,1,1.319.117,5.253,5.253,0,0,0-.735,2.671V14ZM21,5.834a2.333,2.333,0,1,1,2.333,2.333A2.34,2.34,0,0,1,21,5.834Zm-18.667,0A2.334,2.334,0,1,1,4.666,8.167,2.34,2.34,0,0,1,2.333,5.834ZM10.5,3.5A3.5,3.5,0,1,1,14,7,3.5,3.5,0,0,1,10.5,3.5Z" transform="translate(0 7)" fill="#5554d3"/>
</svg>
