<?xml version="1.0" encoding="UTF-8"?>
<svg width="14px" height="15px" viewBox="0 0 14 15" version="1.1" xmlns="http://www.w3.org/2000/svg" xmlns:xlink="http://www.w3.org/1999/xlink">
    <!-- Generator: Sketch 63.1 (92452) - https://sketch.com -->
    <title>Settings</title>
    <desc>Created with Sketch.</desc>
    <g id="Page-1" stroke="none" stroke-width="1" fill="none" fill-rule="evenodd">
        <g id="001-copy" transform="translate(-140.000000, -129.000000)" fill="#000000" fill-rule="nonzero">
            <g id="Settings" transform="translate(140.000000, 129.000000)">
                <path d="M13.7576465,9.14375977 L12.4361845,8.06563477 C12.4529482,7.899375 12.467325,7.70501953 12.467325,7.49938477 C12.467325,7.29375 12.4535378,7.09939453 12.4361845,6.93313477 L13.7588539,5.85439453 C14.0044676,5.65189453 14.0715502,5.29250977 13.9152021,4.9931543 L12.5410063,2.5125 C12.3942334,2.23250977 12.0725516,2.08875 11.7460962,2.214375 L10.1867986,2.86749023 C9.88788949,2.64249023 9.57457544,2.4525 9.25050685,2.300625 L9.01328897,0.575009766 C8.97434233,0.2475 8.70118235,0 8.37832119,0 L5.62276936,0 C5.29988012,0 5.02733789,0.2475 4.98898093,0.57 L4.75117338,2.30188477 C4.43726966,2.44939453 4.12878533,2.63689453 3.81667872,2.86875 L2.25319726,2.21375977 C1.96024105,2.09563477 1.60980555,2.22811523 1.46424004,2.506875 L0.0882752689,4.99063477 C-0.0740538671,5.27689453 -0.00697130249,5.64875977 0.244033739,5.85626953 L1.56549568,6.93439453 C1.54452009,7.14500977 1.53435522,7.32814453 1.53435522,7.5000293 C1.53435522,7.67191406 1.54454817,7.85501953 1.56549568,8.0662793 L0.242826309,9.14501953 C-0.00278741714,9.34813477 -0.0692803066,9.70751953 0.0870678389,10.0062598 L1.46126358,12.4868848 C1.60803653,12.7662598 1.92671381,12.91125 2.25617372,12.7850098 L3.81547129,12.1318945 C4.11379074,12.3562793 4.4270767,12.5462695 4.75117338,12.6987598 L4.98839126,14.4237598 C5.02730981,14.7525 5.29988012,15 5.62335904,15 L8.37891086,15 C8.70180011,15 8.97496009,14.7525 9.01328897,14.43 L9.25109652,12.6987598 C9.56500024,12.5506348 9.87289489,12.36375 10.1855912,12.13125 L11.7490726,12.7862402 C11.8245511,12.8168555 11.903034,12.8325 11.9839037,12.8325 C12.21632,12.8325 12.4301755,12.6999902 12.5380018,12.4937402 L13.9181785,10 C14.0715502,9.70749023 14.0044396,9.34813477 13.7576465,9.14375977 Z M7.00053124,9.99999023 C5.6790693,9.99999023 4.60440044,8.87874023 4.60440044,7.50000977 C4.60440044,6.12125977 5.6790693,5.00000977 7.00053124,5.00000977 C8.32199317,5.00000977 9.39666204,6.12125977 9.39666204,7.50000977 C9.39666204,8.87874023 8.32199317,9.99999023 7.00053124,9.99999023 Z" id="Shape"></path>
            </g>
        </g>
    </g>
</svg>