<svg id="dashboard" xmlns="http://www.w3.org/2000/svg" width="13.785" height="13.785" viewBox="0 0 13.785 13.785">
  <g id="dashboard-2" data-name="dashboard" transform="translate(-5 -5)">
    <g id="Group_9" data-name="Group 9" transform="translate(5 5)">
      <path id="Path" d="M5.313,0H1.005A1.006,1.006,0,0,0,0,1.005V3.59A1.006,1.006,0,0,0,1.005,4.595H5.313A1.006,1.006,0,0,0,6.318,3.59V1.005A1.006,1.006,0,0,0,5.313,0Z"/>
      <path id="Path-2" data-name="Path" d="M5.313,5.744H1.005A1.006,1.006,0,0,0,0,6.749V12.78a1.006,1.006,0,0,0,1.005,1.005H5.313A1.006,1.006,0,0,0,6.318,12.78V6.749A1.006,1.006,0,0,0,5.313,5.744Z"/>
      <path id="Path-3" data-name="Path" d="M12.78,9.19H8.472a1.006,1.006,0,0,0-1.005,1.005V12.78a1.006,1.006,0,0,0,1.005,1.005H12.78a1.006,1.006,0,0,0,1.005-1.005V10.195A1.006,1.006,0,0,0,12.78,9.19Z"/>
      <path id="Path-4" data-name="Path" d="M12.78,0H8.472A1.006,1.006,0,0,0,7.467,1.005V7.036A1.006,1.006,0,0,0,8.472,8.041H12.78a1.006,1.006,0,0,0,1.005-1.005V1.005A1.006,1.006,0,0,0,12.78,0Z"/>
    </g>
  </g>
</svg>
