<svg xmlns="http://www.w3.org/2000/svg" width="20.48" height="17.373" viewBox="0 0 20.48 17.373">
  <g id="group" transform="translate(0 -0.034)">
    <g id="group-2" data-name="group" transform="translate(-6 -7)">
      <g id="Group_10" data-name="Group 10" transform="translate(6 7)">
        <path id="Path" d="M17.524,9.413H15.94a4.121,4.121,0,0,1,.25,1.416v5.986a1.766,1.766,0,0,1-.1.591h2.618a1.776,1.776,0,0,0,1.774-1.774V12.369A2.96,2.96,0,0,0,17.524,9.413Z"/>
        <path id="Path-2" data-name="Path" d="M4.291,10.829a4.12,4.12,0,0,1,.25-1.416H2.956A2.96,2.96,0,0,0,0,12.369v3.263a1.776,1.776,0,0,0,1.774,1.774H4.392a1.765,1.765,0,0,1-.1-.591Z"/>
        <path id="Path-3" data-name="Path" d="M12.05,7.873H8.43a2.96,2.96,0,0,0-2.956,2.956v5.986a.591.591,0,0,0,.591.591h8.351a.591.591,0,0,0,.591-.591V10.829A2.96,2.96,0,0,0,12.05,7.873Z"/>
        <path id="Path-4" data-name="Path" d="M10.24.034A3.555,3.555,0,1,0,13.8,3.589,3.559,3.559,0,0,0,10.24.034Z"/>
        <path id="Path-5" data-name="Path" d="M4,3.348A2.658,2.658,0,1,0,6.656,6.007,2.662,2.662,0,0,0,4,3.348Z"/>
        <path id="Path-6" data-name="Path" d="M16.483,3.348a2.659,2.659,0,1,0,2.659,2.659A2.662,2.662,0,0,0,16.483,3.348Z"/>
      </g>
    </g>
  </g>
</svg>
