<svg xmlns="http://www.w3.org/2000/svg" width="22.121" height="16.096" viewBox="0 0 22.121 16.096">
  <g id="import" transform="translate(0 -0.029)">
    <g id="cloud-computing-_1_" data-name="cloud-computing-(1)" transform="translate(-5 -8)">
      <g id="Group_8" data-name="Group 8" transform="translate(5 8)">
        <path id="Path" d="M17.285,16.125H12.538v-4.8h1.568a.491.491,0,0,0,.4-.778L11.454,6.33a.486.486,0,0,0-.791,0L7.612,10.552a.489.489,0,0,0,.4.778H9.578v4.8H4.262A4.754,4.754,0,0,1,0,11.37,4.5,4.5,0,0,1,2.233,7.483,3.019,3.019,0,0,1,2.048,6.43,3.061,3.061,0,0,1,5.112,3.365a3.012,3.012,0,0,1,1.049.185A6.135,6.135,0,0,1,17.818,5.575a5.337,5.337,0,0,1-.533,10.55Z"/>
      </g>
    </g>
  </g>
</svg>
