<svg id="overview" xmlns="http://www.w3.org/2000/svg" width="20" height="20" viewBox="0 0 20 20">
  <g id="web-page" transform="translate(-6 -6)">
    <g id="Group_13" data-name="Group 13" transform="translate(6 6)">
      <path id="Shape" d="M18.933,3.049a2.071,2.071,0,1,0-.883.884l.883.883a.625.625,0,0,0,.883-.884ZM16.25,2.083a.833.833,0,1,1,.833.833A.836.836,0,0,1,16.25,2.083Z"/>
      <path id="Path" d="M1.458,5H11.875a1.46,1.46,0,0,0,1.458-1.458V1.458A1.46,1.46,0,0,0,11.875,0H1.458A1.46,1.46,0,0,0,0,1.458V3.542A1.46,1.46,0,0,0,1.458,5Z"/>
      <circle id="Oval" cx="2.5" cy="2.5" r="2.5" transform="translate(0 15)"/>
      <path id="Path-2" data-name="Path" d="M19.375,15.417H7.292a.625.625,0,0,0,0,1.25H19.375a.625.625,0,0,0,0-1.25Z"/>
      <path id="Path-3" data-name="Path" d="M19.375,17.917H7.292a.625.625,0,0,0,0,1.25H19.375a.625.625,0,0,0,0-1.25Z"/>
      <path id="Path-4" data-name="Path" d="M18.542,7.5H1.458A1.46,1.46,0,0,0,0,8.958v2.083A1.46,1.46,0,0,0,1.458,12.5H18.542A1.46,1.46,0,0,0,20,11.042V8.958A1.46,1.46,0,0,0,18.542,7.5Z"/>
    </g>
  </g>
</svg>
