<svg xmlns="http://www.w3.org/2000/svg" width="18.102" height="18.153" viewBox="0 0 18.102 18.153">
  <g id="project" transform="translate(-0.025)">
    <g id="pie-chart-stats" transform="translate(-3 -3)">
      <g id="Group_11" data-name="Group 11" transform="translate(3 3)">
        <path id="Shape" d="M9.3,8.327a.279.279,0,0,0,.2.082h8.355a.278.278,0,0,0,.277-.308,9.077,9.077,0,0,0-14.714-6.1.278.278,0,0,0-.022.414ZM8.171,5.153l2.4-3.564a7.6,7.6,0,0,1,.815.206L8.76,5.743ZM9.1,1.448q.107,0,.216,0l-1.95,2.9-.632-.632L8.3,1.49A7.774,7.774,0,0,1,9.1,1.448Zm-2.4.386-.76,1.085L5.414,2.4a7.6,7.6,0,0,1,1.057-.483Q6.583,1.872,6.7,1.834Zm7.1,5.126,1.525-2.3c.105.148.205.3.3.458L14.365,6.96H13.8Zm1.915,0,.479-.7c.091.229.171.462.239.7Zm-4.158,0,2.466-3.712c.079.067.156.134.229.2.11.1.221.209.329.321L12.464,6.96h-.906Zm-1.337,0H9.978l-.415-.415,2.877-4.33a7.661,7.661,0,0,1,.682.376Z"/>
        <path id="Shape-2" data-name="Shape" d="M8.1,9.02,2.444,3.364a.279.279,0,0,0-.414.022A9.077,9.077,0,0,0,3.543,16.251a.279.279,0,0,0,.171.058.271.271,0,0,0,.05,0,.278.278,0,0,0,.187-.128L8.141,9.363A.279.279,0,0,0,8.1,9.02Zm-1.677.371L3.46,14.21A7.641,7.641,0,0,1,2.3,12.535a7.622,7.622,0,0,1,.121-7.146Z"/>
        <path id="Path" d="M17.849,9.745H9.631a.278.278,0,0,0-.237.133l-4.306,7a.278.278,0,0,0,.117.4,9.056,9.056,0,0,0,12.921-7.223.278.278,0,0,0-.277-.308Z"/>
      </g>
    </g>
  </g>
</svg>
