<svg xmlns="http://www.w3.org/2000/svg" width="19.477" height="20" viewBox="0 0 19.477 20">
  <g id="setting" transform="translate(-0.027)">
    <g id="settings-_1_" data-name="settings-(1)" transform="translate(-6 -6)">
      <g id="Group_12" data-name="Group 12" transform="translate(6 6)">
        <path id="Shape" d="M19.166,12.192l-1.838-1.437A7.214,7.214,0,0,0,17.371,10a7,7,0,0,0-.043-.755l1.84-1.438a.9.9,0,0,0,.218-1.148L17.474,3.35a.886.886,0,0,0-1.106-.4L14.2,3.823a7.441,7.441,0,0,0-1.3-.756l-.33-2.3A.885.885,0,0,0,11.683,0H7.85a.883.883,0,0,0-.882.76L6.637,3.069a7.667,7.667,0,0,0-1.3.756L3.162,2.952a.9.9,0,0,0-1.1.391L.151,6.654A.9.9,0,0,0,.367,7.808L2.206,9.246a6.593,6.593,0,0,0,0,1.509L.366,12.193a.9.9,0,0,0-.217,1.148l1.912,3.308a.885.885,0,0,0,1.106.4l2.169-.871a7.506,7.506,0,0,0,1.3.756l.33,2.3A.884.884,0,0,0,7.851,20h3.833a.884.884,0,0,0,.882-.76l.331-2.308a7.7,7.7,0,0,0,1.3-.757l2.175.873a.9.9,0,0,0,.327.062.88.88,0,0,0,.771-.452l1.92-3.325A.9.9,0,0,0,19.166,12.192Zm-9.4,1.142A3.333,3.333,0,1,1,13.1,10,3.337,3.337,0,0,1,9.766,13.333Z"/>
      </g>
    </g>
  </g>
</svg>
